<svg width="17" height="20" viewBox="0 0 85 100" fill="none" xmlns="http://www.w3.org/2000/svg">
<path d="M24.5793 96.1394C21.8793 96.1394 18.8593 94.4994 18.1993 90.8394L3.95926 11.4594C3.61926 9.53938 4.08926 7.68937 5.29926 6.23937C6.53926 4.74937 8.40926 3.85938 10.2893 3.85938C11.4693 3.85938 12.5993 4.19938 13.6693 4.85938L78.1193 45.1494C80.2893 46.4994 81.3993 48.8294 81.0993 51.3694C80.7992 53.9094 79.1693 55.9094 76.7393 56.7094L51.0693 65.1994C47.9293 66.2394 45.2293 68.3694 43.4893 71.1894L29.9693 93.0794C28.3293 95.7394 25.8893 96.1294 24.5793 96.1294V96.1394Z" fill="#000000"/>
<path d="M10.303 7.72C10.753 7.72 11.1931 7.86 11.6431 8.14L76.0986 48.43C77.2987 49.18 77.3587 50.31 77.2887 50.92C77.2187 51.53 76.8887 52.61 75.5485 53.06L49.8764 61.55C45.876 62.87 42.4457 65.58 40.2255 69.17L26.7044 91.06C26.5144 91.36 25.9443 92.29 24.5842 92.29C24.2142 92.29 22.354 92.19 21.994 90.17L7.75276 10.77C7.61275 9.96 7.77276 9.29 8.2628 8.71C8.77285 8.1 9.55291 7.72 10.303 7.72ZM10.303 0C4.32247 0 -1.03799 5.39 0.172113 12.14L14.4033 91.52C15.3734 96.94 19.9538 100 24.5742 100C27.8645 100 31.1748 98.45 33.2449 95.12L46.7661 73.23C48.0362 71.17 49.9864 69.63 52.2766 68.87L77.9488 60.38C86.2095 57.65 87.5496 46.49 80.1689 41.88L15.7134 1.59C13.9633 0.49 12.1031 0 10.293 0H10.303Z" fill="#ffffff"/>
</svg>
